<?xml version="1.0" encoding="utf-8"?>
<!-- Generator: Adobe Illustrator 19.0.0, SVG Export Plug-In . SVG Version: 6.00 Build 0)  -->
<svg version="1.1" id="Layer_1" xmlns="http://www.w3.org/2000/svg" xmlns:xlink="http://www.w3.org/1999/xlink" x="0px" y="0px"
	 viewBox="0 0 334.6 171.6" style="enable-background:new 0 0 334.6 171.6;" xml:space="preserve">
<style type="text/css">
	.st0{fill:none;stroke:#FF8000;stroke-width:0.24;stroke-linecap:round;stroke-linejoin:round;stroke-miterlimit:10;}
	.st1{fill-rule:evenodd;clip-rule:evenodd;fill:#FF8000;}
	.st2{fill:none;stroke:#FF8000;stroke-width:0.12;stroke-linecap:round;stroke-linejoin:round;stroke-miterlimit:10;}
	.st3{fill:none;stroke:#00FFFF;stroke-width:0.24;stroke-linecap:round;stroke-linejoin:round;stroke-miterlimit:10;}
	.st4{fill-rule:evenodd;clip-rule:evenodd;fill:#00FFFF;}
	.st5{fill:none;stroke:#00FFFF;stroke-width:0.12;stroke-linecap:round;stroke-linejoin:round;stroke-miterlimit:10;}
	.st6{fill:none;stroke:#000000;stroke-width:0.24;stroke-linecap:round;stroke-linejoin:round;stroke-miterlimit:10;}
	.st7{fill:none;stroke:#FF0000;stroke-width:0.24;stroke-linecap:round;stroke-linejoin:round;stroke-miterlimit:10;}
	.st8{fill-rule:evenodd;clip-rule:evenodd;fill:#FF0000;}
	.st9{fill:none;stroke:#FF0000;stroke-width:0.12;stroke-linecap:round;stroke-linejoin:round;stroke-miterlimit:10;}
	.st10{fill:none;stroke:#000096;stroke-width:0.72;stroke-linecap:round;stroke-linejoin:round;stroke-miterlimit:10;}
	.st11{fill:none;stroke:#000000;stroke-width:0.36;stroke-linecap:round;stroke-linejoin:round;stroke-miterlimit:10;}
	.st12{fill:none;stroke:#000000;stroke-width:0.12;stroke-miterlimit:10;}
	.st13{fill:none;stroke:#FF8000;stroke-width:0.36;stroke-linecap:round;stroke-linejoin:round;stroke-miterlimit:10;}
	.st14{fill:none;stroke:#00FF00;stroke-width:0.36;stroke-linecap:round;stroke-linejoin:round;stroke-miterlimit:10;}
	.st15{fill:none;stroke:#00FF00;stroke-width:0.24;stroke-linecap:round;stroke-linejoin:round;stroke-miterlimit:10;}
	.st16{fill:none;stroke:#FF0000;stroke-width:0.36;stroke-linecap:round;stroke-linejoin:round;stroke-miterlimit:10;}
	.st17{fill:none;stroke:#00FFFF;stroke-width:0.36;stroke-linecap:round;stroke-linejoin:round;stroke-miterlimit:10;}
	.st18{fill-rule:evenodd;clip-rule:evenodd;fill:#000096;}
	.st19{fill:none;stroke:#000096;stroke-width:0.12;stroke-linecap:round;stroke-linejoin:round;stroke-miterlimit:10;}
	.st20{fill:none;stroke:#00FF00;stroke-width:0.6;stroke-linecap:round;stroke-linejoin:round;stroke-miterlimit:10;}
</style>
<polyline class="st0" points="244.7,52.3 280.2,52.3 280.2,56.9 "/>
<polyline class="st0" points="320.6,56.4 320.6,52.3 280.2,52.3 "/>
<path class="st1" d="M281.5,52.3c0-0.7-0.6-1.3-1.4-1.3c-0.8,0-1.4,0.6-1.4,1.3c0,0.7,0.6,1.3,1.4,1.3
	C280.9,53.6,281.5,53,281.5,52.3z"/>
<path class="st2" d="M281.5,52.3c0-0.7-0.6-1.3-1.4-1.3c-0.8,0-1.4,0.6-1.4,1.3c0,0.7,0.6,1.3,1.4,1.3
	C280.9,53.6,281.5,53,281.5,52.3z"/>
<polyline class="st3" points="154.7,151.8 154.7,70.3 172.7,70.3 "/>
<line class="st3" x1="95.8" y1="147.2" x2="154.7" y2="147.2"/>
<path class="st4" d="M156,147.2c0-0.7-0.6-1.3-1.4-1.3c-0.8,0-1.4,0.6-1.4,1.3c0,0.7,0.6,1.3,1.4,1.3C155.4,148.6,156,148,156,147.2
	z"/>
<path class="st5" d="M156,147.2c0-0.7-0.6-1.3-1.4-1.3c-0.8,0-1.4,0.6-1.4,1.3c0,0.7,0.6,1.3,1.4,1.3C155.4,148.6,156,148,156,147.2
	z"/>
<polyline class="st3" points="95.8,147.2 95.8,147.2 41.8,147.2 41.8,145.1 "/>
<path class="st4" d="M97.1,147.2c0-0.7-0.6-1.3-1.4-1.3c-0.8,0-1.4,0.6-1.4,1.3c0,0.7,0.6,1.3,1.4,1.3
	C96.5,148.6,97.1,148,97.1,147.2z"/>
<path class="st5" d="M97.1,147.2c0-0.7-0.6-1.3-1.4-1.3c-0.8,0-1.4,0.6-1.4,1.3c0,0.7,0.6,1.3,1.4,1.3
	C96.5,148.6,97.1,148,97.1,147.2z"/>
<polyline class="st3" points="280.2,142.8 280.2,147.7 154.7,147.7 "/>
<path class="st4" d="M156,147.7c0-0.8-0.6-1.4-1.4-1.4c-0.8,0-1.4,0.6-1.4,1.4c0,0.8,0.6,1.4,1.4,1.4C155.4,149,156,148.4,156,147.7
	z"/>
<path class="st5" d="M156,147.7c0-0.8-0.6-1.4-1.4-1.4c-0.8,0-1.4,0.6-1.4,1.4c0,0.8,0.6,1.4,1.4,1.4C155.4,149,156,148.4,156,147.7
	z"/>
<polyline class="st3" points="320.6,143.6 320.6,147.7 280.2,147.7 "/>
<path class="st4" d="M281.5,147.7c0-0.8-0.6-1.4-1.4-1.4c-0.8,0-1.4,0.6-1.4,1.4c0,0.8,0.6,1.4,1.4,1.4
	C280.9,149,281.5,148.4,281.5,147.7z"/>
<path class="st5" d="M281.5,147.7c0-0.8-0.6-1.4-1.4-1.4c-0.8,0-1.4,0.6-1.4,1.4c0,0.8,0.6,1.4,1.4,1.4
	C280.9,149,281.5,148.4,281.5,147.7z"/>
<polyline class="st3" points="10.2,114 10.2,147.2 41.8,147.2 "/>
<path class="st4" d="M43.1,147.2c0-0.7-0.6-1.3-1.4-1.3s-1.4,0.6-1.4,1.3c0,0.7,0.6,1.3,1.4,1.3S43.1,148,43.1,147.2z"/>
<path class="st5" d="M43.1,147.2c0-0.7-0.6-1.3-1.4-1.3s-1.4,0.6-1.4,1.3c0,0.7,0.6,1.3,1.4,1.3S43.1,148,43.1,147.2z"/>
<line class="st6" x1="320.6" y1="107.6" x2="320.6" y2="99.6"/>
<line class="st6" x1="280.2" y1="100.1" x2="280.2" y2="106.8"/>
<polyline class="st7" points="172.7,63.1 154.2,63.1 154.2,21.7 "/>
<polyline class="st7" points="42.2,33.5 42.2,21.7 154.2,21.7 "/>
<path class="st8" d="M155.5,21.7c0-0.7-0.6-1.3-1.4-1.3c-0.8,0-1.4,0.6-1.4,1.3c0,0.7,0.6,1.3,1.4,1.3
	C154.9,23,155.5,22.4,155.5,21.7z"/>
<path class="st9" d="M155.5,21.7c0-0.7-0.6-1.3-1.4-1.3c-0.8,0-1.4,0.6-1.4,1.3c0,0.7,0.6,1.3,1.4,1.3
	C154.9,23,155.5,22.4,155.5,21.7z"/>
<line class="st7" x1="95.8" y1="32.5" x2="95.8" y2="21.7"/>
<path class="st8" d="M97.1,21.7c0-0.7-0.6-1.3-1.4-1.3c-0.8,0-1.4,0.6-1.4,1.3c0,0.7,0.6,1.3,1.4,1.3C96.5,23,97.1,22.4,97.1,21.7z"
	/>
<path class="st9" d="M97.1,21.7c0-0.7-0.6-1.3-1.4-1.3c-0.8,0-1.4,0.6-1.4,1.3c0,0.7,0.6,1.3,1.4,1.3C96.5,23,97.1,22.4,97.1,21.7z"
	/>
<polyline class="st7" points="10.2,70.8 10.2,21.7 42.2,21.7 "/>
<path class="st8" d="M43.4,21.7c0-0.7-0.6-1.3-1.3-1.3c-0.7,0-1.3,0.6-1.3,1.3c0,0.7,0.6,1.3,1.3,1.3C42.9,23,43.4,22.4,43.4,21.7z"
	/>
<path class="st9" d="M43.4,21.7c0-0.7-0.6-1.3-1.3-1.3c-0.7,0-1.3,0.6-1.3,1.3c0,0.7,0.6,1.3,1.3,1.3C42.9,23,43.4,22.4,43.4,21.7z"
	/>
<polyline class="st10" points="197.6,25.2 196.1,20.9 194.4,25.2 "/>
<line class="st10" x1="195" y1="23.8" x2="197" y2="23.8"/>
<polyline class="st10" points="199,22.9 200.9,22.9 201.5,22.7 201.7,22.4 202,22.1 202,21.7 201.7,21.2 201.5,21 200.9,20.9 
	199,20.9 199,25.2 "/>
<line class="st10" x1="200.5" y1="22.9" x2="202" y2="25.2"/>
<polyline class="st10" points="203.3,20.9 203.3,25.2 204.7,25.2 205.3,25 205.7,24.6 205.9,24.1 206.2,23.5 206.2,22.4 205.9,21.8 
	205.7,21.5 205.3,21 204.7,20.9 203.3,20.9 "/>
<polyline class="st10" points="207.5,20.9 207.5,23.9 207.7,24.6 208.1,25 208.7,25.2 209.2,25.2 209.8,25 210.1,24.6 210.4,23.9 
	210.4,20.9 "/>
<line class="st10" x1="211.7" y1="20.9" x2="211.7" y2="25.2"/>
<polyline class="st10" points="215.9,20.9 215.9,25.2 213,20.9 213,25.2 "/>
<polyline class="st10" points="218.5,20.9 218,21 217.7,21.5 217.4,21.8 217.2,22.4 217.2,23.5 217.4,24.1 217.7,24.6 218,25 
	218.5,25.2 219.4,25.2 219.7,25 220.2,24.6 220.3,24.1 220.6,23.5 220.6,22.4 220.3,21.8 220.2,21.5 219.7,21 219.4,20.9 
	218.5,20.9 "/>
<polyline class="st10" points="221.9,21.7 222.4,21.5 223,20.9 223,25.2 "/>
<line class="st10" x1="149.8" y1="0.7" x2="149.8" y2="4.4"/>
<line class="st10" x1="148" y1="2.5" x2="151.7" y2="2.5"/>
<polyline class="st10" points="155.4,0.4 153.4,0.4 153.2,2.3 153.4,2 154,1.8 154.7,1.8 155.3,2 155.6,2.4 155.9,3.1 155.9,3.5 
	155.6,4.1 155.3,4.6 154.7,4.7 154,4.7 153.4,4.6 153.2,4.3 153,4 "/>
<polyline class="st10" points="157.2,0.4 158.9,4.7 160.6,0.4 "/>
<polyline class="st10" points="144,168.1 143.5,168.4 143.2,168.7 142.9,169.2 142.9,170 143.2,170.4 143.5,170.9 144,171 
	144.6,171.2 145.7,171.2 146.3,171 146.6,170.9 147.1,170.4 147.2,170 147.2,169.2 147.1,168.7 146.6,168.4 146.3,168.1 
	145.7,168.1 145.7,169.2 "/>
<polyline class="st10" points="142.9,163.9 147.2,163.9 142.9,166.8 147.2,166.8 "/>
<polyline class="st10" points="142.9,162.6 147.2,162.6 147.2,161.2 147.1,160.6 146.6,160.1 146.3,159.8 145.7,159.7 144.6,159.7 
	144,159.8 143.5,160.1 143.2,160.6 142.9,161.2 142.9,162.6 "/>
<polyline class="st10" points="17.9,61.7 22.2,61.7 22.2,59.3 "/>
<polyline class="st10" points="17.9,58 22.2,58 22.2,56.4 22,55.8 21.6,55.4 21.1,55.2 20.5,55 19.6,55 18.8,55.2 18.5,55.4 
	18.1,55.8 17.9,56.4 17.9,58 "/>
<polyline class="st10" points="19.9,53.6 19.9,51.8 19.7,51.2 19.6,51 19.1,50.8 18.7,50.8 18.2,51 18.1,51.2 17.9,51.8 17.9,53.6 
	22.2,53.6 "/>
<line class="st10" x1="19.9" y1="52.2" x2="22.2" y2="50.8"/>
<polyline class="st10" points="18.7,49.4 18.5,49.1 17.9,48.4 22.2,48.4 "/>
<polyline class="st10" points="71.4,61.8 75.7,61.8 75.7,59.3 "/>
<polyline class="st10" points="71.4,58 75.7,58 75.7,56.5 75.5,55.9 75.1,55.4 74.8,55.2 74,55.1 73.1,55.1 72.5,55.2 72,55.4 
	71.6,55.9 71.4,56.5 71.4,58 "/>
<polyline class="st10" points="73.4,53.8 73.4,51.8 73.3,51.2 73.1,51 72.6,50.8 72.2,50.8 71.9,51 71.6,51.2 71.4,51.8 71.4,53.8 
	75.7,53.8 "/>
<line class="st10" x1="73.4" y1="52.2" x2="75.7" y2="50.8"/>
<polyline class="st10" points="72.5,49.3 72.2,49.3 71.9,49.1 71.6,48.8 71.4,48.5 71.4,47.6 71.6,47.2 71.9,47 72.2,46.8 
	72.6,46.8 73.1,47 73.7,47.4 75.7,49.4 75.7,46.6 "/>
<polyline class="st10" points="33.2,126.1 33.2,124.2 33,123.6 32.8,123.4 32.4,123.2 32,123.2 31.6,123.4 31.3,123.6 31.2,124.2 
	31.2,126.1 35.5,126.1 "/>
<line class="st10" x1="33.2" y1="124.7" x2="35.5" y2="123.2"/>
<polyline class="st10" points="32,121.8 31.8,121.4 31.2,120.8 35.5,120.8 "/>
<polyline class="st10" points="87.2,129.2 87.2,127.4 87,126.8 86.8,126.6 86.4,126.4 85.9,126.4 85.6,126.6 85.3,126.8 85.2,127.4 
	85.2,129.2 89.5,129.2 "/>
<line class="st10" x1="87.2" y1="127.8" x2="89.5" y2="126.4"/>
<polyline class="st10" points="86.2,124.8 86,124.8 85.3,124.4 85.2,124 85.2,123.1 85.3,122.8 85.6,122.5 86,122.4 86.4,122.4 
	86.8,122.5 87.5,123 89.5,125 89.5,122.2 "/>
<polyline class="st10" points="264.8,129.6 269.2,129.6 269.2,128.2 269,127.6 268.6,127.2 268.2,127 267.6,126.7 266.5,126.7 
	265.9,127 265.4,127.2 265.1,127.6 264.8,128.2 264.8,129.6 "/>
<polyline class="st10" points="265.7,125.4 265.4,125 264.8,124.4 269.2,124.4 "/>
<polyline class="st10" points="305.4,131.5 309.7,131.5 309.7,130.1 309.5,129.4 309.1,129 308.6,128.8 308,128.6 307,128.6 
	306.4,128.8 306,129 305.5,129.4 305.4,130.1 305.4,131.5 "/>
<polyline class="st10" points="306.4,127.1 306.2,127.1 305.8,126.8 305.5,126.6 305.4,126.2 305.4,125.4 305.5,125 305.8,124.8 
	306.2,124.6 306.6,124.6 307,124.8 307.7,125.2 309.7,127.2 309.7,124.3 "/>
<polyline class="st10" points="271.7,82 271.7,80.2 271.4,79.6 271.3,79.3 270.8,79.1 270.5,79.1 270,79.3 269.8,79.6 269.6,80.2 
	269.6,82 274,82 "/>
<line class="st10" x1="271.7" y1="80.5" x2="274" y2="79.1"/>
<polyline class="st10" points="269.6,77.4 269.6,75.1 271.3,76.3 271.3,75.7 271.4,75.4 271.7,75.1 272.3,74.9 272.8,74.9 
	273.4,75.1 273.7,75.5 274,76.1 274,76.8 273.7,77.4 273.5,77.6 273.1,77.8 "/>
<polyline class="st10" points="312.1,81.7 312.1,79.8 312,79.2 311.8,79 311.4,78.7 310.9,78.7 310.6,79 310.3,79.2 310.1,79.8 
	310.1,81.7 314.4,81.7 "/>
<line class="st10" x1="312.1" y1="80.3" x2="314.4" y2="78.7"/>
<polyline class="st10" points="314.4,75.4 310.1,75.4 313,77.4 313,74.4 "/>
<polyline class="st10" points="2.6,99.5 2.6,97.6 2.4,97 2.2,96.8 1.8,96.6 1.2,96.6 0.5,97 0.4,97.6 0.4,99.5 4.7,99.5 "/>
<polyline class="st10" points="0.4,94 0.5,94.4 1,94.8 1.3,95 1.9,95.3 3,95.3 3.6,95 4.1,94.8 4.4,94.4 4.7,94 4.7,93.1 4.4,92.8 
	4.1,92.4 3.6,92.2 3,91.9 1.9,91.9 1.3,92.2 1,92.4 0.5,92.8 0.4,93.1 0.4,94 "/>
<line class="st10" x1="0.4" y1="89.2" x2="4.7" y2="89.2"/>
<line class="st10" x1="0.4" y1="90.6" x2="0.4" y2="87.7"/>
<polyline class="st10" points="1.2,86.4 1,85.9 0.4,85.3 4.7,85.3 "/>
<polyline class="st10" points="205.2,87.4 208.3,87.4 208.9,87.1 209.4,86.8 209.5,86 209.5,85.7 209.4,85.1 208.9,84.6 208.3,84.5 
	205.2,84.5 "/>
<polyline class="st10" points="205.2,80.2 209.5,80.2 205.2,83.2 209.5,83.2 "/>
<polyline class="st10" points="205.2,77.6 205.4,78 205.8,78.5 206.3,78.7 206.9,78.8 208,78.8 208.6,78.7 208.9,78.5 209.4,78 
	209.5,77.6 209.5,76.8 209.4,76.4 208.9,76 208.6,75.8 208,75.6 206.9,75.6 206.3,75.8 205.8,76 205.4,76.4 205.2,76.8 205.2,77.6 
	"/>
<polyline class="st10" points="197.9,74 197.9,72.2 197.6,71.6 197.4,71.4 197,71.2 196.4,71.2 196,71.4 195.8,71.6 195.6,72.2 
	195.6,74 199.9,74 "/>
<polyline class="st10" points="195.6,68.6 195.8,69 196.2,69.5 197.3,69.8 198.2,69.8 198.8,69.6 199.3,69.5 199.7,69 199.9,68.6 
	199.9,67.8 199.7,67.3 199.3,67 198.8,66.7 198.2,66.6 197.3,66.6 196.6,66.7 196.2,67 195.8,67.3 195.6,67.8 195.6,68.6 "/>
<polyline class="st10" points="195.6,65.2 199.9,64.2 195.6,63.1 199.9,62.2 195.6,61.1 "/>
<polyline class="st10" points="195.6,57.1 195.6,59.8 199.9,59.8 199.9,57.1 "/>
<line class="st10" x1="197.6" y1="59.8" x2="197.6" y2="58.1"/>
<polyline class="st10" points="197.6,55.7 197.6,53.9 197.4,53.3 197.3,53 196.8,52.8 196.4,52.8 196,53 195.8,53.3 195.6,53.9 
	195.6,55.7 199.9,55.7 "/>
<line class="st10" x1="197.6" y1="54.2" x2="199.9" y2="52.8"/>
<polyline class="st10" points="201.8,115.9 197.5,117.5 201.8,119.2 "/>
<line class="st10" x1="200.4" y1="118.6" x2="200.4" y2="116.5"/>
<polyline class="st10" points="197.5,111.6 201.8,111.6 197.5,114.6 201.8,114.6 "/>
<polyline class="st10" points="201.8,107 197.5,108.7 201.8,110.3 "/>
<line class="st10" x1="200.4" y1="109.7" x2="200.4" y2="107.6"/>
<polyline class="st10" points="197.5,105.7 201.8,105.7 201.8,103.2 "/>
<polyline class="st10" points="197.5,100.6 197.6,101 198.1,101.4 198.5,101.6 199.2,101.9 200.2,101.9 200.8,101.6 201.2,101.4 
	201.6,101 201.8,100.6 201.8,99.8 201.6,99.4 201.2,99 200.8,98.8 200.2,98.5 199.2,98.5 198.5,98.8 198.1,99 197.6,99.4 
	197.5,99.8 197.5,100.6 "/>
<polyline class="st10" points="198.5,94.1 198.1,94.3 197.6,94.8 197.5,95.2 197.5,96 197.6,96.4 198.1,96.8 199.2,97.2 200.2,97.2 
	200.8,97 201.2,96.8 201.6,96.4 201.8,96 201.8,95.2 201.6,94.8 201.2,94.3 200.8,94.1 200.2,94.1 200.2,95.2 "/>
<polyline class="st10" points="217.4,103.1 221.8,103.1 221.8,101.6 221.5,101 221.2,100.6 220.7,100.4 220.1,100.2 219,100.2 
	218.4,100.4 218,100.6 217.6,101 217.4,101.6 217.4,103.1 "/>
<line class="st10" x1="217.4" y1="98.9" x2="221.8" y2="98.9"/>
<polyline class="st10" points="218.4,94.4 218,94.7 217.6,95 217.4,95.4 217.4,96.2 217.6,96.7 218,97.1 218.4,97.3 219,97.6 
	220.1,97.6 220.7,97.3 221.2,97.1 221.5,96.7 221.8,96.2 221.8,95.4 221.5,95 221.2,94.7 220.7,94.4 220.1,94.4 220.1,95.4 "/>
<line class="st10" x1="217.4" y1="93.1" x2="221.8" y2="93.1"/>
<line class="st10" x1="217.4" y1="90.4" x2="221.8" y2="90.4"/>
<line class="st10" x1="217.4" y1="91.8" x2="217.4" y2="88.9"/>
<polyline class="st10" points="221.8,84.2 217.4,85.9 221.8,87.5 "/>
<line class="st10" x1="220.3" y1="86.9" x2="220.3" y2="84.8"/>
<polyline class="st10" points="217.4,82.9 221.8,82.9 221.8,80.4 "/>
<line class="st10" x1="217.7" y1="73.1" x2="221.4" y2="73.1"/>
<line class="st10" x1="219.6" y1="74.9" x2="219.6" y2="71.2"/>
<polyline class="st10" points="219.6,65.6 219.6,63.7 219.5,63.1 219.2,62.9 218.9,62.8 218.2,62.8 217.8,62.9 217.6,63.1 
	217.4,63.7 217.4,65.6 221.8,65.6 "/>
<polyline class="st10" points="217.4,61.4 221.8,60.4 217.4,59.3 221.8,58.3 217.4,57.2 "/>
<polyline class="st10" points="221.8,52.7 217.4,52.7 221.8,54.2 217.4,55.9 221.8,55.9 "/>
<line class="st10" x1="190.7" y1="27.1" x2="226.7" y2="27.1"/>
<line class="st10" x1="226.7" y1="27.1" x2="226.7" y2="131.5"/>
<line class="st10" x1="226.7" y1="131.5" x2="190.7" y2="131.5"/>
<line class="st10" x1="190.7" y1="131.5" x2="190.7" y2="27.1"/>
<line class="st10" x1="233.9" y1="30.7" x2="226.7" y2="30.7"/>
<line class="st10" x1="233.9" y1="37.9" x2="226.7" y2="37.9"/>
<line class="st10" x1="233.9" y1="45.1" x2="226.7" y2="45.1"/>
<line class="st10" x1="233.9" y1="52.3" x2="226.7" y2="52.3"/>
<line class="st10" x1="233.9" y1="59.5" x2="226.7" y2="59.5"/>
<line class="st10" x1="233.9" y1="66.7" x2="226.7" y2="66.7"/>
<line class="st10" x1="233.9" y1="73.9" x2="226.7" y2="73.9"/>
<line class="st10" x1="233.9" y1="81.1" x2="226.7" y2="81.1"/>
<line class="st10" x1="233.9" y1="88.3" x2="226.7" y2="88.3"/>
<line class="st10" x1="233.9" y1="95.5" x2="226.7" y2="95.5"/>
<line class="st10" x1="233.9" y1="102.7" x2="226.7" y2="102.7"/>
<line class="st10" x1="233.9" y1="109.9" x2="226.7" y2="109.9"/>
<line class="st10" x1="233.9" y1="117.1" x2="226.7" y2="117.1"/>
<line class="st10" x1="233.9" y1="124.3" x2="226.7" y2="124.3"/>
<line class="st10" x1="183.5" y1="124.3" x2="190.7" y2="124.3"/>
<line class="st10" x1="183.5" y1="117.1" x2="190.7" y2="117.1"/>
<line class="st10" x1="183.5" y1="109.9" x2="190.7" y2="109.9"/>
<line class="st10" x1="183.5" y1="102.7" x2="190.7" y2="102.7"/>
<line class="st10" x1="183.5" y1="95.5" x2="190.7" y2="95.5"/>
<line class="st10" x1="183.5" y1="88.3" x2="190.7" y2="88.3"/>
<line class="st10" x1="183.5" y1="77.5" x2="190.7" y2="77.5"/>
<line class="st10" x1="183.5" y1="70.3" x2="190.7" y2="70.3"/>
<line class="st10" x1="183.5" y1="63.1" x2="190.7" y2="63.1"/>
<line class="st10" x1="183.5" y1="55.9" x2="190.7" y2="55.9"/>
<line class="st10" x1="183.5" y1="48.7" x2="190.7" y2="48.7"/>
<line class="st10" x1="183.5" y1="37.9" x2="190.7" y2="37.9"/>
<line class="st10" x1="183.5" y1="30.7" x2="190.7" y2="30.7"/>
<line class="st10" x1="194.3" y1="45.1" x2="194.3" y2="81.1"/>
<line class="st10" x1="194.3" y1="84.7" x2="194.3" y2="127.9"/>
<line class="st10" x1="223.1" y1="127.9" x2="223.1" y2="30.7"/>
<polyline class="st11" points="235.9,27 235.9,29.9 236.9,29.9 237.4,29.8 237.6,29.5 237.8,28.8 237.8,28.1 237.6,27.4 237.4,27.1 
	236.9,27 235.9,27 "/>
<polyline class="st11" points="239.6,27 239.3,27.1 238.9,27.5 238.8,28.2 238.8,28.7 238.9,29.3 239.3,29.8 239.6,29.9 239.9,29.9 
	240.4,29.8 240.6,29.3 240.7,28.7 240.7,28.2 240.6,27.5 240.4,27.1 239.9,27 239.6,27 "/>
<line class="st11" x1="240.6" y1="27.5" x2="238.9" y2="29.3"/>
<line class="st11" x1="241.7" y1="29.9" x2="243.6" y2="27"/>
<polyline class="st11" points="244.6,28.3 245.8,28.3 246.2,28.2 246.4,28.1 246.5,27.8 246.5,27.5 246.4,27.2 246.2,27.1 245.8,27 
	244.6,27 244.6,29.9 "/>
<line class="st11" x1="245.5" y1="28.3" x2="246.5" y2="29.9"/>
<line class="st11" x1="247.4" y1="27" x2="249.4" y2="29.9"/>
<line class="st11" x1="249.4" y1="27" x2="247.4" y2="29.9"/>
<line class="st6" x1="244.7" y1="30.7" x2="233.9" y2="30.7"/>
<line class="st12" x1="243.9" y1="30" x2="245.9" y2="30"/>
<line class="st12" x1="245.9" y1="30" x2="245.9" y2="32"/>
<line class="st12" x1="245.9" y1="32" x2="243.9" y2="32"/>
<line class="st12" x1="243.9" y1="32" x2="243.9" y2="30"/>
<polyline class="st11" points="235.9,34.2 235.9,37.1 236.9,37.1 237.4,37 237.6,36.7 237.8,36 237.8,35.3 237.6,34.6 237.4,34.3 
	236.9,34.2 235.9,34.2 "/>
<polyline class="st11" points="238.8,34.7 239,34.6 239.5,34.2 239.5,37.1 "/>
<line class="st11" x1="240.5" y1="37.1" x2="242.4" y2="34.2"/>
<line class="st11" x1="244.3" y1="34.2" x2="244.3" y2="37.1"/>
<line class="st11" x1="243.4" y1="34.2" x2="245.3" y2="34.2"/>
<line class="st11" x1="246.2" y1="34.2" x2="248.2" y2="37.1"/>
<line class="st11" x1="248.2" y1="34.2" x2="246.2" y2="37.1"/>
<line class="st6" x1="244.7" y1="37.9" x2="233.9" y2="37.9"/>
<line class="st12" x1="243.9" y1="37" x2="245.9" y2="37"/>
<line class="st12" x1="245.9" y1="37" x2="245.9" y2="39"/>
<line class="st12" x1="245.9" y1="39" x2="243.9" y2="39"/>
<line class="st12" x1="243.9" y1="39" x2="243.9" y2="37"/>
<polyline class="st11" points="235.9,41.4 235.9,44.3 236.9,44.3 237.4,44.2 237.6,43.8 237.7,43.6 237.8,43.2 237.8,42.5 
	237.6,41.8 237.4,41.5 236.9,41.4 235.9,41.4 "/>
<polyline class="st11" points="238.9,42.1 238.9,41.9 239,41.6 239.5,41.4 240.1,41.4 240.4,41.5 240.5,41.6 240.6,41.9 240.6,42.2 
	240.5,42.5 240.2,42.8 238.8,44.3 240.7,44.3 "/>
<line class="st6" x1="244.7" y1="45.1" x2="233.9" y2="45.1"/>
<line class="st12" x1="243.9" y1="44" x2="245.9" y2="44"/>
<line class="st12" x1="245.9" y1="44" x2="245.9" y2="46"/>
<line class="st12" x1="245.9" y1="46" x2="243.9" y2="46"/>
<line class="st12" x1="243.9" y1="46" x2="243.9" y2="44"/>
<polyline class="st13" points="235.9,48.6 235.9,51.5 236.9,51.5 237.4,51.4 237.6,51 237.7,50.8 237.8,50.4 237.8,49.7 237.6,49 
	237.4,48.7 236.9,48.6 235.9,48.6 "/>
<polyline class="st13" points="239,48.6 240.6,48.6 239.8,49.7 240.2,49.7 240.5,49.8 240.6,49.9 240.7,50.4 240.7,50.6 240.6,51 
	240.4,51.4 239.9,51.5 239.5,51.5 239,51.4 238.9,51.2 238.8,50.9 "/>
<line class="st0" x1="244.7" y1="52.3" x2="233.9" y2="52.3"/>
<polyline class="st11" points="235.9,55.8 235.9,58.7 236.9,58.7 237.4,58.6 237.6,58.2 237.7,58 237.8,57.6 237.8,56.9 237.6,56.2 
	237.4,55.9 236.9,55.8 235.9,55.8 "/>
<polyline class="st11" points="240.2,58.7 240.2,55.8 238.8,57.7 240.8,57.7 "/>
<line class="st6" x1="244.7" y1="59.5" x2="233.9" y2="59.5"/>
<line class="st12" x1="243.9" y1="58" x2="245.9" y2="58"/>
<line class="st12" x1="245.9" y1="58" x2="245.9" y2="61"/>
<line class="st12" x1="245.9" y1="61" x2="243.9" y2="61"/>
<line class="st12" x1="243.9" y1="61" x2="243.9" y2="58"/>
<polyline class="st11" points="235.9,63 235.9,65.9 236.9,65.9 237.4,65.8 237.6,65.4 237.7,65.2 237.8,64.8 237.8,64.1 237.6,63.4 
	237.4,63.1 236.9,63 235.9,63 "/>
<polyline class="st11" points="240.5,63 239,63 238.9,64.2 239,64.1 239.5,64 239.9,64 240.4,64.1 240.6,64.3 240.7,64.8 240.7,65 
	240.6,65.4 240.4,65.8 239.9,65.9 239.5,65.9 239,65.8 238.9,65.6 238.8,65.3 "/>
<line class="st6" x1="244.7" y1="66.7" x2="233.9" y2="66.7"/>
<line class="st12" x1="243.9" y1="66" x2="245.9" y2="66"/>
<line class="st12" x1="245.9" y1="66" x2="245.9" y2="68"/>
<line class="st12" x1="245.9" y1="68" x2="243.9" y2="68"/>
<line class="st12" x1="243.9" y1="68" x2="243.9" y2="66"/>
<polyline class="st11" points="235.9,70.2 235.9,73.1 236.9,73.1 237.4,73 237.6,72.6 237.7,72.4 237.8,72 237.8,71.3 237.6,70.6 
	237.4,70.3 236.9,70.2 235.9,70.2 "/>
<polyline class="st11" points="240.5,70.6 240.4,70.3 239.9,70.2 239.6,70.2 239.3,70.3 238.9,70.7 238.8,71.4 238.8,72.1 
	238.9,72.6 239.3,73 239.6,73.1 239.8,73.1 240.2,73 240.5,72.6 240.6,72.2 240.6,72.1 240.5,71.6 240.2,71.4 239.8,71.3 
	239.6,71.3 239.3,71.4 238.9,71.6 238.8,72.1 "/>
<line class="st6" x1="244.7" y1="73.9" x2="233.9" y2="73.9"/>
<line class="st12" x1="243.9" y1="73" x2="245.9" y2="73"/>
<line class="st12" x1="245.9" y1="73" x2="245.9" y2="75"/>
<line class="st12" x1="245.9" y1="75" x2="243.9" y2="75"/>
<line class="st12" x1="243.9" y1="75" x2="243.9" y2="73"/>
<polyline class="st11" points="235.9,77.4 235.9,80.3 236.9,80.3 237.4,80.2 237.6,79.8 237.7,79.6 237.8,79.2 237.8,78.5 
	237.6,77.8 237.4,77.5 236.9,77.4 235.9,77.4 "/>
<polyline class="st11" points="239.4,80.3 240.7,77.4 238.8,77.4 "/>
<line class="st6" x1="244.7" y1="81.1" x2="233.9" y2="81.1"/>
<line class="st12" x1="243.9" y1="80" x2="245.9" y2="80"/>
<line class="st12" x1="245.9" y1="80" x2="245.9" y2="82"/>
<line class="st12" x1="245.9" y1="82" x2="243.9" y2="82"/>
<line class="st12" x1="243.9" y1="82" x2="243.9" y2="80"/>
<polyline class="st11" points="235.9,84.6 235.9,87.5 236.9,87.5 237.4,87.4 237.6,87 237.7,86.8 237.8,86.4 237.8,85.7 237.6,85 
	237.4,84.7 236.9,84.6 235.9,84.6 "/>
<polyline class="st11" points="239.5,84.6 239,84.7 238.9,85 238.9,85.3 239,85.6 239.4,85.7 240.4,85.9 240.6,86.3 240.7,86.5 
	240.7,86.9 240.6,87.2 240.5,87.4 240.1,87.5 239.5,87.5 239,87.4 238.9,87.2 238.8,86.9 238.8,86.5 238.9,86.3 239.3,85.9 
	239.6,85.8 240.2,85.7 240.5,85.6 240.6,85.3 240.6,85 240.5,84.7 240.1,84.6 239.5,84.6 "/>
<line class="st6" x1="244.7" y1="88.3" x2="233.9" y2="88.3"/>
<line class="st12" x1="243.9" y1="87" x2="245.9" y2="87"/>
<line class="st12" x1="245.9" y1="87" x2="245.9" y2="90"/>
<line class="st12" x1="245.9" y1="90" x2="243.9" y2="90"/>
<line class="st12" x1="243.9" y1="90" x2="243.9" y2="87"/>
<polyline class="st11" points="235.9,91.8 235.9,94.7 236.9,94.7 237.4,94.6 237.6,94.2 237.7,94 237.8,93.6 237.8,92.9 237.6,92.2 
	237.4,91.9 236.9,91.8 235.9,91.8 "/>
<polyline class="st11" points="240.6,92.8 240.5,93.1 240.2,93.5 239.8,93.6 239.6,93.6 239.3,93.5 238.9,93.1 238.8,92.8 
	238.8,92.6 238.9,92.2 239.3,91.9 239.6,91.8 239.8,91.8 240.2,91.9 240.5,92.2 240.6,92.8 240.6,93.5 240.5,94.1 240.2,94.6 
	239.8,94.7 239.5,94.7 239,94.6 238.9,94.2 "/>
<line class="st6" x1="244.7" y1="95.5" x2="233.9" y2="95.5"/>
<line class="st12" x1="243.9" y1="94" x2="245.9" y2="94"/>
<line class="st12" x1="245.9" y1="94" x2="245.9" y2="97"/>
<line class="st12" x1="245.9" y1="97" x2="243.9" y2="97"/>
<line class="st12" x1="243.9" y1="97" x2="243.9" y2="94"/>
<polyline class="st11" points="235.9,99 235.9,101.9 236.9,101.9 237.4,101.8 237.6,101.4 237.7,101.2 237.8,100.8 237.8,100.1 
	237.6,99.4 237.4,99.1 236.9,99 235.9,99 "/>
<polyline class="st11" points="238.8,99.5 239,99.4 239.5,99 239.5,101.9 "/>
<polyline class="st11" points="241.3,99 240.8,99.1 240.6,99.5 240.5,100.2 240.5,100.7 240.6,101.3 240.8,101.8 241.3,101.9 
	241.6,101.9 241.9,101.8 242.3,101.3 242.4,100.7 242.4,100.2 242.3,99.5 241.9,99.1 241.6,99 241.3,99 "/>
<line class="st11" x1="242.3" y1="99.5" x2="240.6" y2="101.3"/>
<line class="st6" x1="244.7" y1="102.7" x2="233.9" y2="102.7"/>
<line class="st12" x1="243.9" y1="102" x2="245.9" y2="102"/>
<line class="st12" x1="245.9" y1="102" x2="245.9" y2="104"/>
<line class="st12" x1="245.9" y1="104" x2="243.9" y2="104"/>
<line class="st12" x1="243.9" y1="104" x2="243.9" y2="102"/>
<polyline class="st11" points="235.9,106.2 235.9,109.1 236.9,109.1 237.4,109 237.6,108.6 237.7,108.4 237.8,108 237.8,107.3 
	237.6,106.6 237.4,106.3 236.9,106.2 235.9,106.2 "/>
<polyline class="st11" points="238.8,106.7 239,106.6 239.5,106.2 239.5,109.1 "/>
<polyline class="st11" points="240.5,106.7 240.7,106.6 241.2,106.2 241.2,109.1 "/>
<line class="st6" x1="244.7" y1="109.9" x2="233.9" y2="109.9"/>
<line class="st12" x1="243.9" y1="109" x2="245.9" y2="109"/>
<line class="st12" x1="245.9" y1="109" x2="245.9" y2="111"/>
<line class="st12" x1="245.9" y1="111" x2="243.9" y2="111"/>
<line class="st12" x1="243.9" y1="111" x2="243.9" y2="109"/>
<polyline class="st11" points="235.9,113.4 235.9,116.3 236.9,116.3 237.4,116.2 237.6,115.8 237.7,115.6 237.8,115.2 237.8,114.5 
	237.7,114 237.6,113.8 237.4,113.5 236.9,113.4 235.9,113.4 "/>
<polyline class="st11" points="238.8,113.9 239,113.8 239.5,113.4 239.5,116.3 "/>
<polyline class="st11" points="240.6,114.1 240.6,113.9 240.7,113.6 240.8,113.5 241.2,113.4 241.7,113.4 242.2,113.6 242.3,113.9 
	242.3,114.2 242.2,114.5 241.8,114.8 240.5,116.3 242.4,116.3 "/>
<line class="st6" x1="244.7" y1="117.1" x2="233.9" y2="117.1"/>
<line class="st12" x1="243.9" y1="116" x2="245.9" y2="116"/>
<line class="st12" x1="245.9" y1="116" x2="245.9" y2="118"/>
<line class="st12" x1="245.9" y1="118" x2="243.9" y2="118"/>
<line class="st12" x1="243.9" y1="118" x2="243.9" y2="116"/>
<polyline class="st11" points="235.9,120.6 235.9,123.5 236.9,123.5 237.4,123.4 237.6,123 237.7,122.8 237.8,122.4 237.8,121.7 
	237.7,121.2 237.6,121 237.4,120.7 236.9,120.6 235.9,120.6 "/>
<polyline class="st11" points="238.8,121.1 239,121 239.5,120.6 239.5,123.5 "/>
<polyline class="st11" points="240.7,120.6 242.3,120.6 241.4,121.7 241.8,121.7 242.2,121.8 242.3,121.9 242.4,122.4 242.4,122.6 
	242.3,123 241.9,123.4 241.6,123.5 241.2,123.5 240.7,123.4 240.6,123.2 240.5,122.9 "/>
<line class="st6" x1="244.7" y1="124.3" x2="233.9" y2="124.3"/>
<line class="st12" x1="243.9" y1="123" x2="245.9" y2="123"/>
<line class="st12" x1="245.9" y1="123" x2="245.9" y2="126"/>
<line class="st12" x1="245.9" y1="126" x2="243.9" y2="126"/>
<line class="st12" x1="243.9" y1="126" x2="243.9" y2="123"/>
<polyline class="st14" points="178.9,87.5 177.8,84.6 176.6,87.5 "/>
<line class="st14" x1="177.1" y1="86.5" x2="178.4" y2="86.5"/>
<polyline class="st14" points="180.7,84.6 180.2,84.7 180,85.1 179.9,85.8 179.9,86.3 180,86.9 180.2,87.4 180.7,87.5 181,87.5 
	181.3,87.4 181.7,86.9 181.8,86.3 181.8,85.8 181.7,85.1 181.3,84.7 181,84.6 180.7,84.6 "/>
<line class="st14" x1="181.7" y1="85.1" x2="180" y2="86.9"/>
<polyline class="st14" points="166.2,89.9 165.1,87 164,89.9 "/>
<line class="st14" x1="164.4" y1="88.9" x2="165.8" y2="88.9"/>
<polyline class="st14" points="168,87 167.5,87.1 167.3,87.5 167.2,88.2 167.2,88.6 167.3,89.3 167.5,89.8 168,89.9 168.2,89.9 
	168.7,89.8 169,89.3 169.1,88.6 169.1,88.2 169,87.5 168.7,87.1 168.2,87 168,87 "/>
<line class="st14" x1="169" y1="87.5" x2="167.3" y2="89.3"/>
<line class="st15" x1="173.6" y1="86.5" x2="169.8" y2="88.3"/>
<line class="st15" x1="169.8" y1="88.3" x2="173.6" y2="90.2"/>
<line class="st15" x1="172.7" y1="88.3" x2="169.8" y2="88.3"/>
<line class="st15" x1="172.7" y1="88.3" x2="183.5" y2="88.3"/>
<polyline class="st14" points="180.1,94.7 179,91.8 178,94.7 "/>
<line class="st14" x1="178.3" y1="93.7" x2="179.8" y2="93.7"/>
<polyline class="st14" points="181.1,92.3 181.3,92.2 181.8,91.8 181.8,94.7 "/>
<polyline class="st14" points="167.4,97.1 166.3,94.2 165.2,97.1 "/>
<line class="st14" x1="165.6" y1="96.1" x2="167" y2="96.1"/>
<polyline class="st14" points="168.4,94.7 168.7,94.6 169.1,94.2 169.1,97.1 "/>
<line class="st15" x1="173.6" y1="93.7" x2="169.8" y2="95.5"/>
<line class="st15" x1="169.8" y1="95.5" x2="173.6" y2="97.4"/>
<line class="st15" x1="172.7" y1="95.5" x2="169.8" y2="95.5"/>
<line class="st15" x1="172.7" y1="95.5" x2="183.5" y2="95.5"/>
<polyline class="st11" points="178.9,101.9 177.8,99 176.6,101.9 "/>
<line class="st11" x1="177.1" y1="100.9" x2="178.4" y2="100.9"/>
<polyline class="st11" points="180,99.7 180,99.5 180.1,99.2 180.2,99.1 180.5,99 181.1,99 181.3,99.1 181.7,99.5 181.7,99.8 
	181.4,100.1 181.2,100.4 179.9,101.9 181.8,101.9 "/>
<polyline class="st11" points="166.2,104.3 165.1,101.4 164,104.3 "/>
<line class="st11" x1="164.4" y1="103.3" x2="165.8" y2="103.3"/>
<polyline class="st11" points="167.3,102 167.3,101.9 167.4,101.6 167.5,101.5 167.9,101.4 168.4,101.4 168.7,101.5 168.8,101.6 
	169,101.9 169,102.1 168.8,102.5 168.5,102.8 167.2,104.3 169.1,104.3 "/>
<line class="st6" x1="173.6" y1="100.9" x2="169.8" y2="102.7"/>
<line class="st6" x1="169.8" y1="102.7" x2="173.6" y2="104.6"/>
<line class="st6" x1="172.7" y1="102.7" x2="169.8" y2="102.7"/>
<line class="st6" x1="172.7" y1="102.7" x2="183.5" y2="102.7"/>
<polyline class="st11" points="178.9,109.1 177.8,106.2 176.6,109.1 "/>
<line class="st11" x1="177.1" y1="108.1" x2="178.4" y2="108.1"/>
<polyline class="st11" points="180.1,106.2 181.7,106.2 180.8,107.3 181.2,107.3 181.7,107.5 181.8,108 181.8,108.2 181.7,108.6 
	181.3,109 181,109.1 180.5,109.1 180.1,109 180,108.8 179.9,108.5 "/>
<line class="st6" x1="172.7" y1="109.9" x2="183.5" y2="109.9"/>
<line class="st12" x1="171.9" y1="109" x2="173.9" y2="109"/>
<line class="st12" x1="173.9" y1="109" x2="173.9" y2="111"/>
<line class="st12" x1="173.9" y1="111" x2="171.9" y2="111"/>
<line class="st12" x1="171.9" y1="111" x2="171.9" y2="109"/>
<polyline class="st11" points="167,116.3 165.8,113.4 164.8,116.3 "/>
<line class="st11" x1="165.2" y1="115.3" x2="166.6" y2="115.3"/>
<polyline class="st11" points="169.3,116.3 169.3,113.4 167.9,115.3 170,115.3 "/>
<line class="st11" x1="171" y1="116.3" x2="172.9" y2="113.4"/>
<polyline class="st11" points="175.8,113.8 175.4,113.5 175.1,113.4 174.5,113.4 174.1,113.5 173.9,113.8 173.9,114 174,114.4 
	174.1,114.5 174.4,114.6 175.2,114.8 175.8,115.4 175.8,115.8 175.4,116.2 175.1,116.3 174.5,116.3 174.1,116.2 173.9,115.8 "/>
<polyline class="st11" points="176.6,113.4 176.6,116.3 177.6,116.3 178.1,116.2 178.3,115.8 178.4,115.6 178.7,115.2 178.7,114.5 
	178.3,113.8 178.1,113.5 177.6,113.4 176.6,113.4 "/>
<polyline class="st11" points="181.8,116.3 180.7,113.4 179.5,116.3 "/>
<line class="st11" x1="180" y1="115.3" x2="181.3" y2="115.3"/>
<line class="st6" x1="172.7" y1="117.1" x2="183.5" y2="117.1"/>
<line class="st12" x1="171.9" y1="116" x2="173.9" y2="116"/>
<line class="st12" x1="173.9" y1="116" x2="173.9" y2="118"/>
<line class="st12" x1="173.9" y1="118" x2="171.9" y2="118"/>
<line class="st12" x1="171.9" y1="118" x2="171.9" y2="116"/>
<polyline class="st11" points="167.5,123.5 166.4,120.6 165.4,123.5 "/>
<line class="st11" x1="165.7" y1="122.5" x2="167.2" y2="122.5"/>
<polyline class="st11" points="170.2,120.6 168.7,120.6 168.6,121.8 168.7,121.7 169.2,121.6 169.6,121.6 170,121.7 170.3,121.9 
	170.4,122.4 170.4,122.6 170.3,123 170,123.4 169.6,123.5 169.2,123.5 168.7,123.4 168.6,123.2 168.5,122.9 "/>
<line class="st11" x1="171.4" y1="123.5" x2="173.3" y2="120.6"/>
<polyline class="st11" points="176.2,121 175.9,120.7 175.4,120.6 175,120.6 174.5,120.7 174.2,121 174.2,121.2 174.4,121.6 
	174.5,121.7 175.6,122 175.9,122.3 176,122.4 176.2,122.6 176.2,123 175.9,123.4 175.4,123.5 175,123.5 174.5,123.4 174.2,123 "/>
<polyline class="st11" points="179.2,121.2 179,121 178.8,120.7 178.4,120.6 178,120.6 177.7,120.7 177.4,121 177.2,121.2 
	177.1,121.7 177.1,122.4 177.2,122.8 177.4,123 177.7,123.4 178,123.5 178.4,123.5 178.8,123.4 179,123 179.2,122.8 "/>
<polyline class="st11" points="180.1,120.6 180.1,123.5 181.8,123.5 "/>
<line class="st6" x1="172.7" y1="124.3" x2="183.5" y2="124.3"/>
<line class="st12" x1="171.9" y1="123" x2="173.9" y2="123"/>
<line class="st12" x1="173.9" y1="123" x2="173.9" y2="126"/>
<line class="st12" x1="173.9" y1="126" x2="171.9" y2="126"/>
<line class="st12" x1="171.9" y1="126" x2="171.9" y2="123"/>
<line class="st11" x1="170.3" y1="34.2" x2="170.3" y2="37.1"/>
<polyline class="st11" points="172.1,34.2 171.7,34.3 171.5,34.6 171.2,35.3 171.2,36 171.5,36.7 171.7,37 172.1,37.1 172.6,37.1 
	172.9,37 173.2,36.7 173.4,36 173.4,35.3 173.2,34.6 172.9,34.3 172.6,34.2 172.1,34.2 "/>
<polyline class="st11" points="174.4,35.5 175.6,35.5 176,35.4 176.2,35.3 176.3,35 176.3,34.7 176.2,34.4 176,34.3 175.6,34.2 
	174.4,34.2 174.4,37.1 "/>
<line class="st11" x1="175.3" y1="35.5" x2="176.3" y2="37.1"/>
<polyline class="st11" points="179,34.2 177.2,34.2 177.2,37.1 179,37.1 "/>
<line class="st11" x1="177.2" y1="35.5" x2="178.3" y2="35.5"/>
<polyline class="st11" points="181.8,34.2 180,34.2 180,37.1 "/>
<line class="st11" x1="180" y1="35.5" x2="181.1" y2="35.5"/>
<line class="st6" x1="172.7" y1="37.9" x2="183.5" y2="37.9"/>
<line class="st12" x1="171.9" y1="37" x2="173.9" y2="37"/>
<line class="st12" x1="173.9" y1="37" x2="173.9" y2="39"/>
<line class="st12" x1="173.9" y1="39" x2="171.9" y2="39"/>
<line class="st12" x1="171.9" y1="39" x2="171.9" y2="37"/>
<polyline class="st11" points="168.6,46.3 169.9,46.3 170.3,46.2 170.4,46.1 170.5,45.8 170.5,45.5 170.4,45.2 170.3,45.1 169.9,45 
	168.6,45 168.6,47.9 "/>
<line class="st11" x1="169.6" y1="46.3" x2="170.5" y2="47.9"/>
<polyline class="st11" points="173.3,45 171.5,45 171.5,47.9 173.3,47.9 "/>
<line class="st11" x1="171.5" y1="46.3" x2="172.6" y2="46.3"/>
<polyline class="st11" points="176.2,45.4 175.9,45.1 175.4,45 175,45 174.5,45.1 174.2,45.4 174.2,45.7 174.4,46 174.5,46.1 
	175.6,46.4 175.9,46.7 176,46.8 176.2,47 176.2,47.4 175.9,47.8 175.4,47.9 175,47.9 174.5,47.8 174.2,47.4 "/>
<polyline class="st11" points="178.9,45 177.1,45 177.1,47.9 178.9,47.9 "/>
<line class="st11" x1="177.1" y1="46.3" x2="178.2" y2="46.3"/>
<line class="st11" x1="180.8" y1="45" x2="180.8" y2="47.9"/>
<line class="st11" x1="179.9" y1="45" x2="181.8" y2="45"/>
<line class="st6" x1="172.7" y1="48.7" x2="183.5" y2="48.7"/>
<line class="st12" x1="171.9" y1="48" x2="173.9" y2="48"/>
<line class="st12" x1="173.9" y1="48" x2="173.9" y2="50"/>
<line class="st12" x1="173.9" y1="50" x2="171.9" y2="50"/>
<line class="st12" x1="171.9" y1="50" x2="171.9" y2="48"/>
<polyline class="st11" points="172.9,52.2 174.4,52.2 173.5,53.3 174,53.3 174.2,53.4 174.4,53.5 174.5,54 174.5,54.2 174.4,54.6 
	174.1,55 173.8,55.1 173.3,55.1 172.9,55 172.8,54.8 172.6,54.5 "/>
<polyline class="st11" points="175.6,54.8 175.4,55 175.6,55.1 175.8,55 175.6,54.8 "/>
<polyline class="st11" points="177,52.2 178.4,52.2 177.7,53.3 178.1,53.3 178.3,53.4 178.4,53.5 178.7,54 178.7,54.2 178.2,55 
	177.8,55.1 177.4,55.1 177,55 176.9,54.8 176.6,54.5 "/>
<polyline class="st11" points="179.5,52.2 180.7,55.1 181.8,52.2 "/>
<line class="st6" x1="172.7" y1="55.9" x2="183.5" y2="55.9"/>
<line class="st12" x1="171.9" y1="55" x2="173.9" y2="55"/>
<line class="st12" x1="173.9" y1="55" x2="173.9" y2="57"/>
<line class="st12" x1="173.9" y1="57" x2="171.9" y2="57"/>
<line class="st12" x1="171.9" y1="57" x2="171.9" y2="55"/>
<polyline class="st16" points="178.3,59.4 177,59.4 176.9,60.6 177,60.5 177.4,60.4 177.8,60.4 178.2,60.5 178.4,60.7 178.7,61.2 
	178.7,61.4 178.2,62.2 177.8,62.3 177.4,62.3 177,62.2 176.9,62 176.6,61.7 "/>
<polyline class="st16" points="179.5,59.4 180.7,62.3 181.8,59.4 "/>
<line class="st7" x1="172.7" y1="63.1" x2="183.5" y2="63.1"/>
<polyline class="st17" points="176,67.3 175.9,67 175.6,66.7 175.3,66.6 174.8,66.6 174.5,66.7 174.2,67 174,67.7 174,68.4 
	174.1,68.8 174.2,69 174.5,69.4 174.8,69.5 175.3,69.5 175.6,69.4 175.9,69 176,68.8 176,68.4 175.3,68.4 "/>
<polyline class="st17" points="178.9,66.6 178.9,69.5 177,66.6 177,69.5 "/>
<polyline class="st17" points="179.9,66.6 179.9,69.5 180.8,69.5 181.2,69.4 181.6,69 181.7,68.8 181.8,68.4 181.8,67.7 181.6,67 
	181.2,66.7 180.8,66.6 179.9,66.6 "/>
<line class="st3" x1="172.7" y1="70.3" x2="183.5" y2="70.3"/>
<polyline class="st11" points="175.9,73.8 177,76.7 178.1,73.8 "/>
<polyline class="st11" points="179,73.8 179.2,73.9 179.3,73.8 179.2,73.7 179,73.8 "/>
<line class="st11" x1="179.2" y1="74.8" x2="179.2" y2="76.7"/>
<line class="st11" x1="180.2" y1="74.8" x2="180.2" y2="76.7"/>
<polyline class="st11" points="180.2,75.2 180.7,74.9 181,74.8 181.3,74.8 181.7,74.9 181.8,75.2 181.8,76.7 "/>
<line class="st6" x1="172.7" y1="77.5" x2="183.5" y2="77.5"/>
<line class="st12" x1="171.9" y1="76" x2="173.9" y2="76"/>
<line class="st12" x1="173.9" y1="76" x2="173.9" y2="79"/>
<line class="st12" x1="173.9" y1="79" x2="171.9" y2="79"/>
<line class="st12" x1="171.9" y1="79" x2="171.9" y2="76"/>
<polyline class="st11" points="173.4,29.9 172.3,27 171.2,29.9 "/>
<line class="st11" x1="171.6" y1="28.9" x2="173" y2="28.9"/>
<polyline class="st11" points="174.4,28.3 175.6,28.3 176,28.2 176.2,28.1 176.3,27.8 176.3,27.5 176.2,27.2 176,27.1 175.6,27 
	174.4,27 174.4,29.9 "/>
<line class="st11" x1="175.3" y1="28.3" x2="176.3" y2="29.9"/>
<polyline class="st11" points="179,27 177.2,27 177.2,29.9 179,29.9 "/>
<line class="st11" x1="177.2" y1="28.3" x2="178.3" y2="28.3"/>
<polyline class="st11" points="181.8,27 180,27 180,29.9 "/>
<line class="st11" x1="180" y1="28.3" x2="181.1" y2="28.3"/>
<line class="st6" x1="172.7" y1="30.7" x2="183.5" y2="30.7"/>
<line class="st12" x1="171.9" y1="30" x2="173.9" y2="30"/>
<line class="st12" x1="173.9" y1="30" x2="173.9" y2="32"/>
<line class="st12" x1="173.9" y1="32" x2="171.9" y2="32"/>
<line class="st12" x1="171.9" y1="32" x2="171.9" y2="30"/>
<line class="st10" x1="147" y1="10.9" x2="161.4" y2="10.9"/>
<line class="st7" x1="154.2" y1="21.7" x2="154.2" y2="10.9"/>
<line class="st10" x1="149.3" y1="162.6" x2="160.1" y2="162.6"/>
<line class="st10" x1="151.1" y1="165.5" x2="158.3" y2="165.5"/>
<line class="st10" x1="153.2" y1="168.4" x2="156.1" y2="168.4"/>
<line class="st3" x1="154.7" y1="151.8" x2="154.7" y2="162.6"/>
<line class="st10" x1="45.8" y1="46.1" x2="42.2" y2="44.3"/>
<line class="st10" x1="38.6" y1="49.7" x2="45.8" y2="46.1"/>
<line class="st10" x1="45.8" y1="53.3" x2="38.6" y2="49.7"/>
<line class="st10" x1="38.6" y1="56.9" x2="45.8" y2="53.3"/>
<line class="st10" x1="45.8" y1="60.5" x2="38.6" y2="56.9"/>
<line class="st10" x1="38.6" y1="64.1" x2="45.8" y2="60.5"/>
<line class="st10" x1="42.2" y1="65.9" x2="38.6" y2="64.1"/>
<path class="st10" d="M32.4,44.5c-2.9,2.7-4.6,6.5-4.6,10.5c0,7.9,6.4,14.3,14.3,14.3S56.5,62.9,56.5,55c0-7.9-6.4-14.3-14.3-14.3
	C38.6,40.7,35.1,42,32.4,44.5"/>
<line class="st10" x1="24.2" y1="40.7" x2="33" y2="49.4"/>
<polygon class="st18" points="35,51.5 32.5,49.9 33.5,49 "/>
<polygon class="st19" points="35,51.5 32.5,49.9 33.5,49 "/>
<line class="st10" x1="24.2" y1="47.9" x2="33" y2="56.6"/>
<polygon class="st18" points="35,58.7 32.5,57.1 33.5,56.2 "/>
<polygon class="st19" points="35,58.7 32.5,57.1 33.5,56.2 "/>
<line class="st7" x1="42.2" y1="33.5" x2="42.2" y2="44.3"/>
<polyline class="st14" points="43.7,81.8 40.8,82.9 43.7,84.1 "/>
<line class="st14" x1="42.7" y1="83.6" x2="42.7" y2="82.3"/>
<polyline class="st14" points="41.3,80.9 41.2,80.6 40.8,80.3 43.7,80.3 "/>
<line class="st15" x1="40.3" y1="75.7" x2="42.2" y2="79.4"/>
<line class="st15" x1="42.2" y1="79.4" x2="44" y2="75.7"/>
<line class="st15" x1="42.2" y1="76.7" x2="42.2" y2="79.4"/>
<line class="st15" x1="42.2" y1="76.7" x2="42.2" y2="65.9"/>
<line class="st10" x1="99.4" y1="45.1" x2="95.8" y2="43.3"/>
<line class="st10" x1="92.2" y1="48.7" x2="99.4" y2="45.1"/>
<line class="st10" x1="99.4" y1="52.3" x2="92.2" y2="48.7"/>
<line class="st10" x1="92.2" y1="55.9" x2="99.4" y2="52.3"/>
<line class="st10" x1="99.4" y1="59.5" x2="92.2" y2="55.9"/>
<line class="st10" x1="92.2" y1="63.1" x2="99.4" y2="59.5"/>
<line class="st10" x1="95.8" y1="64.9" x2="92.2" y2="63.1"/>
<path class="st10" d="M84.9,44.6c-2.3,2.6-3.5,5.9-3.5,9.4c0,7.9,6.4,14.3,14.3,14.3c7.9,0,14.3-6.4,14.3-14.3
	c0-7.9-6.4-14.3-14.3-14.3C91.5,39.7,87.6,41.5,84.9,44.6"/>
<line class="st10" x1="77.8" y1="39.7" x2="86.5" y2="48.6"/>
<polygon class="st18" points="88.6,50.5 86,49.1 87,48 "/>
<polygon class="st19" points="88.6,50.5 86,49.1 87,48 "/>
<line class="st10" x1="77.8" y1="46.9" x2="86.5" y2="55.8"/>
<polygon class="st18" points="88.6,57.7 86,56.3 87,55.2 "/>
<polygon class="st19" points="88.6,57.7 86,56.3 87,55.2 "/>
<line class="st7" x1="95.8" y1="32.5" x2="95.8" y2="43.3"/>
<polyline class="st11" points="97.2,82.2 94.3,83.3 97.2,84.4 "/>
<line class="st11" x1="96.2" y1="84" x2="96.2" y2="82.6"/>
<polyline class="st11" points="95,81.1 94.9,81.1 94.6,81 94.4,80.9 94.3,80.5 94.3,80 94.6,79.6 94.9,79.4 95.2,79.4 95.4,79.6 
	95.9,79.9 97.2,81.2 97.2,79.3 "/>
<line class="st6" x1="93.8" y1="74.8" x2="95.8" y2="78.6"/>
<line class="st6" x1="95.8" y1="78.6" x2="97.6" y2="74.8"/>
<line class="st6" x1="95.8" y1="75.7" x2="95.8" y2="78.6"/>
<line class="st6" x1="95.8" y1="75.7" x2="95.8" y2="64.9"/>
<line class="st10" x1="45.4" y1="114.5" x2="41.8" y2="112.7"/>
<line class="st10" x1="38.2" y1="118.1" x2="45.4" y2="114.5"/>
<line class="st10" x1="45.4" y1="121.7" x2="38.2" y2="118.1"/>
<line class="st10" x1="38.2" y1="125.3" x2="45.4" y2="121.7"/>
<line class="st10" x1="45.4" y1="128.9" x2="38.2" y2="125.3"/>
<line class="st10" x1="38.2" y1="132.5" x2="45.4" y2="128.9"/>
<line class="st10" x1="41.8" y1="134.3" x2="38.2" y2="132.5"/>
<polyline class="st14" points="38.6,110.4 38.5,110.4 38,110.2 37.9,109.8 37.9,109.3 38,109.1 38.3,108.8 38.5,108.7 38.8,108.7 
	39.1,108.8 40.8,110.5 40.8,108.6 "/>
<polyline class="st14" points="43.2,95.6 40.3,96.7 43.2,97.9 "/>
<line class="st14" x1="42.2" y1="97.4" x2="42.2" y2="96.1"/>
<polyline class="st14" points="40.9,94.7 40.8,94.4 40.3,94.1 43.2,94.1 "/>
<line class="st15" x1="39.8" y1="102.8" x2="41.8" y2="99"/>
<line class="st15" x1="41.8" y1="99" x2="43.7" y2="102.8"/>
<line class="st15" x1="41.8" y1="101.9" x2="41.8" y2="99"/>
<line class="st15" x1="41.8" y1="101.9" x2="41.8" y2="112.7"/>
<polyline class="st17" points="38.5,136.6 38.4,136.3 37.9,136 40.8,136 "/>
<line class="st3" x1="41.8" y1="145.1" x2="41.8" y2="134.3"/>
<line class="st10" x1="99.4" y1="116.6" x2="95.8" y2="114.8"/>
<line class="st10" x1="92.2" y1="120.2" x2="99.4" y2="116.6"/>
<line class="st10" x1="99.4" y1="123.8" x2="92.2" y2="120.2"/>
<line class="st10" x1="92.2" y1="127.4" x2="99.4" y2="123.8"/>
<line class="st10" x1="99.4" y1="131" x2="92.2" y2="127.4"/>
<line class="st10" x1="92.2" y1="134.6" x2="99.4" y2="131"/>
<line class="st10" x1="95.8" y1="136.4" x2="92.2" y2="134.6"/>
<polyline class="st11" points="92.6,112.7 92.5,112.7 92,112.4 91.9,112.1 91.9,111.6 92,111.2 92.5,111 92.8,111 93,111.1 
	93.5,111.5 94.8,112.8 94.8,110.9 "/>
<polyline class="st11" points="97.2,97.9 94.3,99 97.2,100.1 "/>
<line class="st11" x1="96.2" y1="99.7" x2="96.2" y2="98.3"/>
<polyline class="st11" points="95,96.8 94.9,96.8 94.6,96.7 94.4,96.6 94.3,96.2 94.3,95.8 94.4,95.4 94.6,95.3 94.9,95.2 
	95.2,95.2 95.4,95.3 95.9,95.6 97.2,97 97.2,95 "/>
<line class="st6" x1="93.8" y1="105" x2="95.8" y2="101.3"/>
<line class="st6" x1="95.8" y1="101.3" x2="97.6" y2="105"/>
<line class="st6" x1="95.8" y1="104.2" x2="95.8" y2="101.3"/>
<line class="st6" x1="95.8" y1="104.2" x2="95.8" y2="114.8"/>
<polyline class="st17" points="92.5,138.8 92.4,138.6 91.9,138.1 94.8,138.1 "/>
<line class="st3" x1="95.8" y1="147.2" x2="95.8" y2="136.4"/>
<path class="st10" d="M272.7,119.7c-1,1.5-1.5,3.2-1.5,5c0,4.9,4,8.9,8.9,8.9c4.9,0,8.9-4,8.9-8.9s-4-8.9-8.9-8.9
	C277.2,115.8,274.4,117.3,272.7,119.7"/>
<line class="st10" x1="274.8" y1="129.2" x2="285.6" y2="129.2"/>
<line class="st10" x1="286.4" y1="133.8" x2="291" y2="138.2"/>
<line class="st10" x1="289.2" y1="131" x2="293.6" y2="135.6"/>
<line class="st10" x1="280.2" y1="129.2" x2="280.2" y2="132"/>
<line class="st10" x1="280.2" y1="117.6" x2="280.2" y2="120.2"/>
<polyline class="st10" points="290,136.4 289.2,137.4 291,138.2 290,136.4 "/>
<polyline class="st10" points="292.8,133.8 291.8,134.6 293.6,135.6 292.8,133.8 "/>
<polyline class="st10" points="280.2,129.2 285.6,120.2 274.8,120.2 280.2,129.2 "/>
<polyline class="st17" points="277,134.4 276.8,134 276.4,133.7 279.2,133.7 "/>
<line class="st3" x1="280.2" y1="142.8" x2="280.2" y2="132"/>
<polyline class="st11" points="277.1,115.3 277,115.3 276.7,115.2 276.4,114.8 276.4,114.2 276.7,113.9 277,113.8 277.2,113.8 
	277.6,113.9 277.9,114.1 279.2,115.4 279.2,113.5 "/>
<line class="st6" x1="280.2" y1="106.8" x2="280.2" y2="117.6"/>
<path class="st10" d="M313,120.8c-0.9,1.4-1.4,3.1-1.4,4.7c0,4.9,4,8.9,8.9,8.9c4.9,0,8.9-4,8.9-8.9s-4-8.9-8.9-8.9
	C317.5,116.6,314.6,118.2,313,120.8"/>
<line class="st10" x1="315.2" y1="130.2" x2="326" y2="130.2"/>
<line class="st10" x1="327" y1="134.6" x2="331.4" y2="139.2"/>
<line class="st10" x1="329.6" y1="132" x2="334.2" y2="136.4"/>
<line class="st10" x1="320.6" y1="130.2" x2="320.6" y2="132.8"/>
<line class="st10" x1="320.6" y1="118.4" x2="320.6" y2="121.2"/>
<polyline class="st10" points="330.6,137.4 329.6,138.2 331.4,139.2 330.6,137.4 "/>
<polyline class="st10" points="333.2,134.6 332.4,135.6 334.2,136.4 333.2,134.6 "/>
<polyline class="st10" points="320.6,130.2 326,121.2 315.2,121.2 320.6,130.2 "/>
<polyline class="st17" points="317.4,135.2 317.3,135 316.9,134.5 319.8,134.5 "/>
<line class="st3" x1="320.6" y1="143.6" x2="320.6" y2="132.8"/>
<polyline class="st11" points="317.6,116.3 317.4,116.3 317.2,116.2 317,116 316.9,115.7 316.9,115.2 317,114.8 317.2,114.7 
	317.4,114.6 317.8,114.6 318,114.7 318.4,115 319.8,116.4 319.8,114.5 "/>
<line class="st6" x1="320.6" y1="107.6" x2="320.6" y2="118.4"/>
<line class="st10" x1="283.8" y1="69.5" x2="280.2" y2="67.7"/>
<line class="st10" x1="276.6" y1="73.1" x2="283.8" y2="69.5"/>
<line class="st10" x1="283.8" y1="76.7" x2="276.6" y2="73.1"/>
<line class="st10" x1="276.6" y1="80.3" x2="283.8" y2="76.7"/>
<line class="st10" x1="283.8" y1="83.9" x2="276.6" y2="80.3"/>
<line class="st10" x1="276.6" y1="87.5" x2="283.8" y2="83.9"/>
<line class="st10" x1="280.2" y1="89.3" x2="276.6" y2="87.5"/>
<polyline class="st13" points="277.1,65.4 277,65.4 276.7,65.3 276.4,64.9 276.4,64.3 277,63.7 277.2,63.7 277.9,64.2 279.2,65.5 
	279.2,63.6 "/>
<line class="st0" x1="280.2" y1="56.9" x2="280.2" y2="67.7"/>
<polyline class="st11" points="277,91.7 276.8,91.3 276.4,91 279.2,91 "/>
<line class="st6" x1="280.2" y1="100.1" x2="280.2" y2="89.3"/>
<line class="st10" x1="324.2" y1="69" x2="320.6" y2="67.2"/>
<line class="st10" x1="317" y1="72.6" x2="324.2" y2="69"/>
<line class="st10" x1="324.2" y1="76.2" x2="317" y2="72.6"/>
<line class="st10" x1="317" y1="79.8" x2="324.2" y2="76.2"/>
<line class="st10" x1="324.2" y1="83.4" x2="317" y2="79.8"/>
<line class="st10" x1="317" y1="87" x2="324.2" y2="83.4"/>
<line class="st10" x1="320.6" y1="88.8" x2="317" y2="87"/>
<polyline class="st13" points="317.6,64.9 317.4,64.9 317.2,64.8 317,64.7 316.9,64.4 316.9,63.8 317,63.6 317.2,63.5 317.4,63.4 
	317.8,63.4 318,63.5 318.4,63.7 319.8,65.2 319.8,63.2 "/>
<line class="st0" x1="320.6" y1="56.4" x2="320.6" y2="67.2"/>
<polyline class="st11" points="317.4,91.2 317.3,91 316.9,90.5 319.8,90.5 "/>
<line class="st6" x1="320.6" y1="99.6" x2="320.6" y2="88.8"/>
<line class="st10" x1="21" y1="90.6" x2="16.7" y2="90.6"/>
<polygon class="st18" points="13.8,90.6 16.7,89.9 16.7,91.3 "/>
<polygon class="st19" points="13.8,90.6 16.7,89.9 16.7,91.3 "/>
<line class="st10" x1="6.6" y1="101.4" x2="10.2" y2="103.2"/>
<line class="st10" x1="13.8" y1="97.8" x2="6.6" y2="101.4"/>
<line class="st10" x1="6.6" y1="94.2" x2="13.8" y2="97.8"/>
<line class="st10" x1="13.8" y1="90.6" x2="6.6" y2="94.2"/>
<line class="st10" x1="6.6" y1="87" x2="13.8" y2="90.6"/>
<line class="st10" x1="13.8" y1="83.4" x2="6.6" y2="87"/>
<line class="st10" x1="10.2" y1="81.6" x2="13.8" y2="83.4"/>
<polyline class="st16" points="7,79.6 6.8,79.2 6.5,78.8 9.4,78.8 "/>
<line class="st7" x1="10.2" y1="70.8" x2="10.2" y2="81.6"/>
<polyline class="st20" points="19.6,87.5 23.2,86.6 19.6,85.8 23.2,85 19.6,84 "/>
<polyline class="st14" points="17.5,94 17.5,92.4 18.6,93.2 18.6,92.9 18.7,92.5 18.8,92.4 19.3,92.3 19.6,92.3 19.9,92.4 
	20.3,92.6 20.4,93.1 20.4,93.5 20.3,94 19.8,94.2 "/>
<polyline class="st14" points="22.8,107.9 19.8,109 22.8,110 "/>
<line class="st14" x1="21.8" y1="109.7" x2="21.8" y2="108.2"/>
<polyline class="st14" points="19.8,106.1 20,106.4 20.4,106.8 21.1,106.9 21.5,106.9 22.2,106.8 22.6,106.4 22.8,106.1 22.8,105.8 
	22.6,105.4 22.2,105.1 21.5,105 21.1,105 20.4,105.1 20,105.4 19.8,105.8 19.8,106.1 "/>
<line class="st14" x1="20.4" y1="105.1" x2="22.2" y2="106.8"/>
<line class="st15" x1="19.3" y1="100.4" x2="21.2" y2="104.3"/>
<line class="st15" x1="21.2" y1="104.3" x2="23.2" y2="100.4"/>
<line class="st15" x1="21.2" y1="101.4" x2="21.2" y2="104.3"/>
<line class="st15" x1="21.2" y1="101.4" x2="21.2" y2="90.6"/>
<polyline class="st17" points="7.2,106.7 7,106.7 6.7,106.6 6.6,106.4 6.5,106.1 6.5,105.6 6.6,105.2 6.7,105.1 7,105 7.3,105 
	7.6,105.1 7.9,105.5 9.4,106.8 9.4,104.9 "/>
<line class="st3" x1="10.2" y1="114" x2="10.2" y2="103.2"/>
</svg>
